<mxfile host="app.diagrams.net" agent="Mozilla/5.0 (Windows NT 10.0; Win64; x64) AppleWebKit/537.36 (KHTML, like Gecko) Chrome/141.0.0.0 Safari/537.36" version="28.2.5">
  <diagram name="Página-1" id="b-HK0A98cuXKUHtczfGE">
    <mxGraphModel dx="1426" dy="777" grid="1" gridSize="10" guides="1" tooltips="1" connect="1" arrows="1" fold="1" page="1" pageScale="1" pageWidth="827" pageHeight="1169" math="0" shadow="0">
      <root>
        <mxCell id="0" />
        <mxCell id="1" parent="0" />
        <mxCell id="_HQBlaRaCxWmsFzylAqO-1" value="confirma presença" style="text;html=1;align=center;verticalAlign=middle;resizable=0;points=[];autosize=1;strokeColor=none;fillColor=none;fontSize=18;" parent="1" vertex="1">
          <mxGeometry x="310" y="30" width="170" height="40" as="geometry" />
        </mxCell>
        <mxCell id="_HQBlaRaCxWmsFzylAqO-3" style="edgeStyle=orthogonalEdgeStyle;rounded=0;orthogonalLoop=1;jettySize=auto;html=1;" parent="1" source="_HQBlaRaCxWmsFzylAqO-2" target="_HQBlaRaCxWmsFzylAqO-4" edge="1">
          <mxGeometry relative="1" as="geometry">
            <mxPoint x="210" y="125" as="targetPoint" />
          </mxGeometry>
        </mxCell>
        <mxCell id="_HQBlaRaCxWmsFzylAqO-2" value="" style="ellipse;fillColor=strokeColor;html=1;" parent="1" vertex="1">
          <mxGeometry x="100" y="110" width="30" height="30" as="geometry" />
        </mxCell>
        <mxCell id="_HQBlaRaCxWmsFzylAqO-5" style="edgeStyle=orthogonalEdgeStyle;rounded=0;orthogonalLoop=1;jettySize=auto;html=1;" parent="1" source="_HQBlaRaCxWmsFzylAqO-4" target="_HQBlaRaCxWmsFzylAqO-7" edge="1">
          <mxGeometry relative="1" as="geometry">
            <mxPoint x="360" y="125" as="targetPoint" />
          </mxGeometry>
        </mxCell>
        <mxCell id="_HQBlaRaCxWmsFzylAqO-4" value="eleitor apresenta documentos&amp;nbsp;" style="rounded=1;whiteSpace=wrap;html=1;" parent="1" vertex="1">
          <mxGeometry x="170" y="95" width="120" height="60" as="geometry" />
        </mxCell>
        <mxCell id="_HQBlaRaCxWmsFzylAqO-9" style="edgeStyle=orthogonalEdgeStyle;rounded=0;orthogonalLoop=1;jettySize=auto;html=1;" parent="1" source="_HQBlaRaCxWmsFzylAqO-7" edge="1">
          <mxGeometry relative="1" as="geometry">
            <mxPoint x="530" y="125" as="targetPoint" />
          </mxGeometry>
        </mxCell>
        <mxCell id="_HQBlaRaCxWmsFzylAqO-7" value="mesário registra documentos no sistema&amp;nbsp;" style="rounded=1;whiteSpace=wrap;html=1;" parent="1" vertex="1">
          <mxGeometry x="330" y="95" width="120" height="60" as="geometry" />
        </mxCell>
        <mxCell id="_HQBlaRaCxWmsFzylAqO-10" style="edgeStyle=orthogonalEdgeStyle;rounded=0;orthogonalLoop=1;jettySize=auto;html=1;" parent="1" source="_HQBlaRaCxWmsFzylAqO-8" target="_HQBlaRaCxWmsFzylAqO-11" edge="1">
          <mxGeometry relative="1" as="geometry">
            <mxPoint x="590" y="220" as="targetPoint" />
          </mxGeometry>
        </mxCell>
        <mxCell id="_HQBlaRaCxWmsFzylAqO-8" value="eleitor coloca digital no leitor&amp;nbsp;" style="rounded=1;whiteSpace=wrap;html=1;" parent="1" vertex="1">
          <mxGeometry x="530" y="95" width="120" height="60" as="geometry" />
        </mxCell>
        <mxCell id="_HQBlaRaCxWmsFzylAqO-12" style="edgeStyle=orthogonalEdgeStyle;rounded=0;orthogonalLoop=1;jettySize=auto;html=1;" parent="1" source="_HQBlaRaCxWmsFzylAqO-11" target="_HQBlaRaCxWmsFzylAqO-13" edge="1">
          <mxGeometry relative="1" as="geometry">
            <mxPoint x="450" y="250" as="targetPoint" />
          </mxGeometry>
        </mxCell>
        <mxCell id="_HQBlaRaCxWmsFzylAqO-11" value="sistema valida digital" style="rounded=1;whiteSpace=wrap;html=1;" parent="1" vertex="1">
          <mxGeometry x="530" y="220" width="120" height="60" as="geometry" />
        </mxCell>
        <mxCell id="_HQBlaRaCxWmsFzylAqO-14" style="edgeStyle=orthogonalEdgeStyle;rounded=0;orthogonalLoop=1;jettySize=auto;html=1;" parent="1" source="_HQBlaRaCxWmsFzylAqO-13" edge="1">
          <mxGeometry relative="1" as="geometry">
            <mxPoint x="250" y="250" as="targetPoint" />
          </mxGeometry>
        </mxCell>
        <mxCell id="_HQBlaRaCxWmsFzylAqO-15" value="Dados inválidos" style="edgeLabel;html=1;align=center;verticalAlign=middle;resizable=0;points=[];" parent="_HQBlaRaCxWmsFzylAqO-14" vertex="1" connectable="0">
          <mxGeometry x="-0.0642" y="-5" relative="1" as="geometry">
            <mxPoint as="offset" />
          </mxGeometry>
        </mxCell>
        <mxCell id="_HQBlaRaCxWmsFzylAqO-19" style="edgeStyle=orthogonalEdgeStyle;rounded=0;orthogonalLoop=1;jettySize=auto;html=1;" parent="1" source="_HQBlaRaCxWmsFzylAqO-13" edge="1">
          <mxGeometry relative="1" as="geometry">
            <mxPoint x="414" y="330" as="targetPoint" />
          </mxGeometry>
        </mxCell>
        <mxCell id="_HQBlaRaCxWmsFzylAqO-20" value="Dados validados&amp;nbsp;" style="edgeLabel;html=1;align=center;verticalAlign=middle;resizable=0;points=[];" parent="_HQBlaRaCxWmsFzylAqO-19" vertex="1" connectable="0">
          <mxGeometry x="-0.2148" y="-1" relative="1" as="geometry">
            <mxPoint as="offset" />
          </mxGeometry>
        </mxCell>
        <mxCell id="_HQBlaRaCxWmsFzylAqO-13" value="" style="rhombus;whiteSpace=wrap;html=1;" parent="1" vertex="1">
          <mxGeometry x="389" y="237.5" width="50" height="25" as="geometry" />
        </mxCell>
        <mxCell id="_HQBlaRaCxWmsFzylAqO-17" style="edgeStyle=orthogonalEdgeStyle;rounded=0;orthogonalLoop=1;jettySize=auto;html=1;" parent="1" source="_HQBlaRaCxWmsFzylAqO-16" edge="1">
          <mxGeometry relative="1" as="geometry">
            <mxPoint x="190" y="330" as="targetPoint" />
          </mxGeometry>
        </mxCell>
        <mxCell id="_HQBlaRaCxWmsFzylAqO-16" value="sistema apresenta tela de erro" style="rounded=1;whiteSpace=wrap;html=1;" parent="1" vertex="1">
          <mxGeometry x="130" y="220" width="120" height="60" as="geometry" />
        </mxCell>
        <mxCell id="_HQBlaRaCxWmsFzylAqO-18" value="eleitor não apto para votar&amp;nbsp;" style="rounded=1;whiteSpace=wrap;html=1;" parent="1" vertex="1">
          <mxGeometry x="130" y="530" width="120" height="60" as="geometry" />
        </mxCell>
        <mxCell id="_HQBlaRaCxWmsFzylAqO-21" value="sistema registra presença" style="rounded=1;whiteSpace=wrap;html=1;" parent="1" vertex="1">
          <mxGeometry x="354" y="330" width="120" height="60" as="geometry" />
        </mxCell>
        <mxCell id="_HQBlaRaCxWmsFzylAqO-24" value="" style="shape=line;html=1;strokeWidth=6;strokeColor=#000000;" parent="1" vertex="1">
          <mxGeometry x="384" y="545" width="60" height="10" as="geometry" />
        </mxCell>
        <mxCell id="_HQBlaRaCxWmsFzylAqO-25" value="" style="edgeStyle=orthogonalEdgeStyle;html=1;verticalAlign=bottom;endArrow=open;endSize=8;strokeColor=#000000;rounded=0;" parent="1" source="_HQBlaRaCxWmsFzylAqO-24" edge="1">
          <mxGeometry relative="1" as="geometry">
            <mxPoint x="414" y="595" as="targetPoint" />
          </mxGeometry>
        </mxCell>
        <mxCell id="_HQBlaRaCxWmsFzylAqO-29" value="" style="ellipse;html=1;shape=endState;fillColor=strokeColor;" parent="1" vertex="1">
          <mxGeometry x="399" y="595" width="30" height="30" as="geometry" />
        </mxCell>
        <mxCell id="P-8GeMTchVzfyxAgC0ya-6" style="edgeStyle=orthogonalEdgeStyle;rounded=0;orthogonalLoop=1;jettySize=auto;html=1;" edge="1" parent="1" source="P-8GeMTchVzfyxAgC0ya-5">
          <mxGeometry relative="1" as="geometry">
            <mxPoint x="190" y="450" as="targetPoint" />
          </mxGeometry>
        </mxCell>
        <mxCell id="P-8GeMTchVzfyxAgC0ya-5" value="mesário verifica documentos do eleitor" style="rounded=1;whiteSpace=wrap;html=1;" vertex="1" parent="1">
          <mxGeometry x="130" y="330" width="120" height="60" as="geometry" />
        </mxCell>
        <mxCell id="P-8GeMTchVzfyxAgC0ya-8" style="edgeStyle=orthogonalEdgeStyle;rounded=0;orthogonalLoop=1;jettySize=auto;html=1;" edge="1" parent="1" source="P-8GeMTchVzfyxAgC0ya-7">
          <mxGeometry relative="1" as="geometry">
            <mxPoint x="190" y="530" as="targetPoint" />
          </mxGeometry>
        </mxCell>
        <mxCell id="P-8GeMTchVzfyxAgC0ya-9" value="Documentos invalidos" style="edgeLabel;html=1;align=center;verticalAlign=middle;resizable=0;points=[];" vertex="1" connectable="0" parent="P-8GeMTchVzfyxAgC0ya-8">
          <mxGeometry x="-0.3" y="2" relative="1" as="geometry">
            <mxPoint as="offset" />
          </mxGeometry>
        </mxCell>
        <mxCell id="P-8GeMTchVzfyxAgC0ya-10" value="Documentos validos" style="edgeStyle=orthogonalEdgeStyle;rounded=0;orthogonalLoop=1;jettySize=auto;html=1;entryX=0;entryY=0.5;entryDx=0;entryDy=0;" edge="1" parent="1" source="P-8GeMTchVzfyxAgC0ya-7" target="_HQBlaRaCxWmsFzylAqO-21">
          <mxGeometry relative="1" as="geometry" />
        </mxCell>
        <mxCell id="P-8GeMTchVzfyxAgC0ya-7" value="" style="rhombus;whiteSpace=wrap;html=1;" vertex="1" parent="1">
          <mxGeometry x="165" y="450" width="50" height="20" as="geometry" />
        </mxCell>
        <mxCell id="P-8GeMTchVzfyxAgC0ya-11" style="edgeStyle=orthogonalEdgeStyle;rounded=0;orthogonalLoop=1;jettySize=auto;html=1;entryX=0.5;entryY=0.5;entryDx=0;entryDy=0;entryPerimeter=0;" edge="1" parent="1" source="_HQBlaRaCxWmsFzylAqO-21" target="_HQBlaRaCxWmsFzylAqO-24">
          <mxGeometry relative="1" as="geometry" />
        </mxCell>
        <mxCell id="P-8GeMTchVzfyxAgC0ya-12" style="edgeStyle=orthogonalEdgeStyle;rounded=0;orthogonalLoop=1;jettySize=auto;html=1;entryX=0.25;entryY=0.5;entryDx=0;entryDy=0;entryPerimeter=0;" edge="1" parent="1" source="_HQBlaRaCxWmsFzylAqO-18" target="_HQBlaRaCxWmsFzylAqO-24">
          <mxGeometry relative="1" as="geometry">
            <Array as="points">
              <mxPoint x="320" y="560" />
              <mxPoint x="320" y="510" />
              <mxPoint x="399" y="510" />
            </Array>
          </mxGeometry>
        </mxCell>
      </root>
    </mxGraphModel>
  </diagram>
</mxfile>
